<svg width="17" height="8" viewBox="0 0 17 8" fill="none" xmlns="http://www.w3.org/2000/svg">
<path d="M0.71109 2.46668C0.71109 1.71994 0.71109 1.34657 0.856415 1.06136C0.984246 0.810473 1.18822 0.606499 1.4391 0.478668C1.72432 0.333344 2.09769 0.333344 2.84442 0.333344H13.9378C14.6845 0.333344 15.0579 0.333344 15.3431 0.478668C15.594 0.606499 15.7979 0.810473 15.9258 1.06136C16.0711 1.34657 16.0711 1.71994 16.0711 2.46668V5.53334C16.0711 6.28008 16.0711 6.65345 15.9258 6.93866C15.7979 7.18955 15.594 7.39352 15.3431 7.52135C15.0579 7.66668 14.6845 7.66668 13.9378 7.66668H2.84442C2.09769 7.66668 1.72432 7.66668 1.4391 7.52135C1.18822 7.39352 0.984246 7.18955 0.856415 6.93866C0.71109 6.65345 0.71109 6.28008 0.71109 5.53334V2.46668Z" fill="white"/>
</svg>
