<svg width="16" height="12" viewBox="0 0 16 12" fill="none" xmlns="http://www.w3.org/2000/svg">
<path fill-rule="evenodd" clip-rule="evenodd" d="M14.5333 0.666656H13.68C13.2087 0.666656 12.8267 1.11437 12.8267 1.66666V10.3333C12.8267 10.8856 13.2087 11.3333 13.68 11.3333H14.5333C15.0046 11.3333 15.3867 10.8856 15.3867 10.3333V1.66666C15.3867 1.11437 15.0046 0.666656 14.5333 0.666656ZM9.69779 2.99999H10.5511C11.0224 2.99999 11.4045 3.44771 11.4045 3.99999V10.3333C11.4045 10.8856 11.0224 11.3333 10.5511 11.3333H9.69779C9.22651 11.3333 8.84445 10.8856 8.84445 10.3333V3.99999C8.84445 3.44771 9.22651 2.99999 9.69779 2.99999ZM6.56888 5.33332H5.71556C5.24428 5.33332 4.86223 5.78104 4.86223 6.33332V10.3333C4.86223 10.8856 5.24428 11.3333 5.71556 11.3333H6.56888C7.04016 11.3333 7.42221 10.8856 7.42221 10.3333V6.33332C7.42221 5.78104 7.04016 5.33332 6.56888 5.33332ZM2.58667 7.33332H1.73333C1.26204 7.33332 0.87999 7.78104 0.87999 8.33332V10.3333C0.87999 10.8856 1.26204 11.3333 1.73333 11.3333H2.58667C3.05795 11.3333 3.44 10.8856 3.44 10.3333V8.33332C3.44 7.78104 3.05795 7.33332 2.58667 7.33332Z" fill="black"/>
</svg>
