<svg width="16" height="12" viewBox="0 0 16 12" fill="none" xmlns="http://www.w3.org/2000/svg">
<path fill-rule="evenodd" clip-rule="evenodd" d="M14.5333 0.666656H13.68C13.2087 0.666656 12.8267 1.11437 12.8267 1.66666V10.3333C12.8267 10.8856 13.2087 11.3333 13.68 11.3333H14.5333C15.0046 11.3333 15.3867 10.8856 15.3867 10.3333V1.66666C15.3867 1.11437 15.0046 0.666656 14.5333 0.666656ZM9.69781 2.99999H10.5512C11.0224 2.99999 11.4045 3.44771 11.4045 3.99999V10.3333C11.4045 10.8856 11.0224 11.3333 10.5512 11.3333H9.69781C9.22652 11.3333 8.84447 10.8856 8.84447 10.3333V3.99999C8.84447 3.44771 9.22652 2.99999 9.69781 2.99999ZM6.5689 5.33332H5.71557C5.24429 5.33332 4.86224 5.78104 4.86224 6.33332V10.3333C4.86224 10.8856 5.24429 11.3333 5.71557 11.3333H6.5689C7.04018 11.3333 7.42223 10.8856 7.42223 10.3333V6.33332C7.42223 5.78104 7.04018 5.33332 6.5689 5.33332ZM2.58668 7.33332H1.73334C1.26206 7.33332 0.880005 7.78104 0.880005 8.33332V10.3333C0.880005 10.8856 1.26206 11.3333 1.73334 11.3333H2.58668C3.05797 11.3333 3.44002 10.8856 3.44002 10.3333V8.33332C3.44002 7.78104 3.05797 7.33332 2.58668 7.33332Z" fill="white"/>
</svg>
